<?xml version="1.0" standalone="no"?>
<!DOCTYPE svg PUBLIC "-//W3C//DTD SVG 20010904//EN"
 "http://www.w3.org/TR/2001/REC-SVG-20010904/DTD/svg10.dtd">
<svg version="1.0" xmlns="http://www.w3.org/2000/svg"
 width="192.000000pt" height="152.000000pt" viewBox="0 0 192.000000 152.000000"
 preserveAspectRatio="xMidYMid meet">
<metadata>
Created by potrace 1.15, written by Peter Selinger 2001-2017
</metadata>
<g transform="translate(0.000000,152.000000) scale(0.100000,-0.100000)"
fill="#000000" stroke="none">
<path d="M1541 1484 c-34 -24 -51 -74 -51 -150 0 -75 9 -72 -100 -40 -74 22
-248 31 -335 18 -43 -7 -97 -25 -140 -47 -38 -19 -75 -35 -81 -35 -7 0 -41 14
-78 31 -91 42 -215 63 -346 56 -182 -9 -281 -57 -334 -161 -27 -53 -30 -65
-30 -166 0 -101 3 -113 30 -169 30 -60 30 -61 11 -78 -39 -36 -47 -68 -47
-186 0 -112 1 -115 26 -132 l25 -16 -26 -25 c-27 -25 -27 -27 -23 -127 3 -76
9 -114 25 -149 20 -44 24 -47 70 -55 26 -4 417 -8 868 -8 650 0 825 3 843 13
21 12 22 19 22 118 0 80 -4 111 -16 130 -14 20 -15 32 -6 67 17 65 22 1027 6
1066 -16 39 -55 63 -95 59 -39 -4 -49 -23 -16 -32 29 -7 87 -69 87 -92 0 -10
6 -14 15 -10 10 4 15 -1 15 -15 0 -11 -4 -17 -10 -14 -5 3 -10 -3 -10 -14 0
-12 5 -21 10 -21 6 0 10 -7 10 -15 0 -8 -6 -12 -14 -9 -7 3 -16 -2 -20 -11
-10 -28 -71 -45 -161 -45 -83 0 -88 1 -117 30 -16 17 -34 28 -39 24 -5 -3 -9
2 -9 10 0 9 5 16 10 16 6 0 10 9 10 20 0 11 -4 20 -10 20 -5 0 -10 7 -10 15 0
8 6 12 14 9 8 -3 16 4 20 19 7 28 69 87 92 87 9 0 14 6 12 13 -7 19 -70 20
-97 1z m-935 -305 c64 -19 143 -59 188 -93 18 -14 17 -17 -19 -66 l-37 -51
-34 26 c-99 75 -254 107 -349 70 -48 -18 -65 -38 -65 -78 0 -51 52 -71 225
-86 126 -12 160 -20 219 -55 89 -52 129 -164 92 -261 -24 -62 -102 -130 -175
-153 -136 -42 -332 -9 -466 78 l-64 42 30 49 c17 27 34 51 38 53 3 2 32 -13
64 -34 90 -61 158 -83 257 -84 69 0 93 4 126 21 50 26 74 61 74 105 0 76 -48
103 -212 118 -145 13 -224 34 -268 69 -124 98 -78 274 87 333 70 25 203 24
289 -3z m715 5 c62 -19 153 -63 189 -92 22 -18 23 -22 12 -43 -7 -13 -24 -37
-37 -53 l-23 -29 -38 31 c-66 52 -130 75 -225 80 -73 4 -92 1 -127 -17 -62
-32 -79 -74 -43 -110 27 -27 74 -38 214 -51 67 -6 140 -19 170 -30 51 -19 113
-72 135 -115 19 -38 24 -106 12 -151 -40 -142 -220 -219 -425 -181 -92 17
-203 64 -258 109 l-27 23 30 45 c16 25 31 49 33 54 2 5 31 -10 65 -33 154
-105 337 -119 424 -31 24 24 38 47 38 63 0 83 -50 113 -216 127 -184 16 -234
32 -294 94 -30 32 -35 44 -38 100 -5 72 7 103 60 154 53 50 117 71 224 72 55
0 111 -6 145 -16z m429 -374 l0 -380 -65 0 -65 0 0 380 0 380 65 0 65 0 0
-380z m-1564 -545 c7 -40 19 -38 27 5 4 18 13 30 22 30 9 0 18 -12 22 -30 8
-43 20 -45 27 -5 4 21 13 35 21 35 18 0 18 3 -1 -75 -13 -50 -21 -65 -34 -65
-12 0 -21 12 -27 38 l-10 37 -10 -35 c-6 -24 -15 -35 -28 -35 -14 0 -22 15
-35 62 -9 35 -15 65 -12 68 15 15 32 1 38 -30z"/>
</g>
</svg>
